<svg width="50" height="50" viewBox="0 0 50 50" fill="none" xmlns="http://www.w3.org/2000/svg">
<g clip-path="url(#clip0_5_27)">
<path d="M49.5935 24.0894V49.6182H44.6222V29.1103H27.7334L29.6072 24.0894H49.5935Z" fill="black"/>
<path d="M0.406274 26.4452C0.400949 30.0165 1.28192 33.5398 2.97924 36.7354L5.73918 31.1378C4.73251 27.3797 4.99404 23.4205 6.48758 19.8081C7.98111 16.1956 10.6328 13.1084 14.0759 10.9736L16.9415 4.62008C7.31628 7.75105 0.406274 16.3383 0.406274 26.4452ZM49.4673 24.2306H44.736C44.839 25.0045 44.8906 25.7837 44.8905 26.5636C44.8905 36.8729 35.9929 45.2349 25.0141 45.2349C20.9709 45.2416 17.0227 44.0835 13.702 41.9168L11.7387 45.903C15.6926 48.2849 20.2925 49.5481 24.9896 49.5418C38.5698 49.5418 49.577 39.202 49.577 26.4452C49.5771 25.6968 49.5405 24.9586 49.4673 24.2306ZM43.9718 20.9393H48.8698C47.8749 17.1396 45.8695 13.6393 43.0415 10.7663C40.2134 7.89338 36.6553 5.74181 32.7004 4.51318L35.4888 10.6911C39.5286 13.0459 42.5378 16.6812 43.9718 20.9393Z" fill="black"/>
<path d="M36.5905 21.1379H31.1682L24.9981 6.92633L6.56052 49.3853H1.13818L22.2869 0.683499L22.4169 0.381836H27.575L27.7091 0.687355L36.5905 21.1379Z" fill="black"/>
<path d="M23.7956 28.5516C25.3127 28.5516 26.5424 27.4338 26.5424 26.0549C26.5424 24.676 25.3127 23.5582 23.7956 23.5582C22.2786 23.5582 21.0488 24.676 21.0488 26.0549C21.0488 27.4338 22.2786 28.5516 23.7956 28.5516Z" fill="black"/>
</g>
<defs>
<clipPath id="clip0_5_27">
<rect width="50" height="50" fill="white"/>
</clipPath>
</defs>
</svg>
